<mxfile host="app.diagrams.net" modified="2022-11-17T07:34:58.266Z" agent="5.0 (Windows)" etag="AL6bWrJlsBdR_XP46GHT" version="20.5.3" type="github">
  <diagram id="B4sp6tkjbq-qY0KO3aS_" name="Page-1">
    <mxGraphModel dx="620" dy="1409" grid="1" gridSize="10" guides="1" tooltips="1" connect="1" arrows="1" fold="1" page="1" pageScale="1" pageWidth="850" pageHeight="1100" math="0" shadow="0">
      <root>
        <mxCell id="0" />
        <mxCell id="1" parent="0" />
        <mxCell id="GO1e90xstaqXlvDwQSsc-14" value="db - mastercompany" style="shape=table;startSize=30;container=1;collapsible=1;childLayout=tableLayout;fixedRows=1;rowLines=0;fontStyle=1;align=center;resizeLast=1;fillColor=#fff2cc;strokeColor=#d6b656;" parent="1" vertex="1">
          <mxGeometry x="20" y="10" width="170" height="270" as="geometry" />
        </mxCell>
        <mxCell id="GO1e90xstaqXlvDwQSsc-15" value="" style="shape=tableRow;horizontal=0;startSize=0;swimlaneHead=0;swimlaneBody=0;fillColor=none;collapsible=0;dropTarget=0;points=[[0,0.5],[1,0.5]];portConstraint=eastwest;top=0;left=0;right=0;bottom=1;" parent="GO1e90xstaqXlvDwQSsc-14" vertex="1">
          <mxGeometry y="30" width="170" height="30" as="geometry" />
        </mxCell>
        <mxCell id="GO1e90xstaqXlvDwQSsc-16" value="PK" style="shape=partialRectangle;connectable=0;fillColor=none;top=0;left=0;bottom=0;right=0;fontStyle=1;overflow=hidden;" parent="GO1e90xstaqXlvDwQSsc-15" vertex="1">
          <mxGeometry width="30" height="30" as="geometry">
            <mxRectangle width="30" height="30" as="alternateBounds" />
          </mxGeometry>
        </mxCell>
        <mxCell id="GO1e90xstaqXlvDwQSsc-17" value="_id" style="shape=partialRectangle;connectable=0;fillColor=none;top=0;left=0;bottom=0;right=0;align=left;spacingLeft=6;fontStyle=5;overflow=hidden;" parent="GO1e90xstaqXlvDwQSsc-15" vertex="1">
          <mxGeometry x="30" width="140" height="30" as="geometry">
            <mxRectangle width="140" height="30" as="alternateBounds" />
          </mxGeometry>
        </mxCell>
        <mxCell id="GO1e90xstaqXlvDwQSsc-18" value="" style="shape=tableRow;horizontal=0;startSize=0;swimlaneHead=0;swimlaneBody=0;fillColor=none;collapsible=0;dropTarget=0;points=[[0,0.5],[1,0.5]];portConstraint=eastwest;top=0;left=0;right=0;bottom=0;" parent="GO1e90xstaqXlvDwQSsc-14" vertex="1">
          <mxGeometry y="60" width="170" height="30" as="geometry" />
        </mxCell>
        <mxCell id="GO1e90xstaqXlvDwQSsc-19" value="" style="shape=partialRectangle;connectable=0;fillColor=none;top=0;left=0;bottom=0;right=0;editable=1;overflow=hidden;" parent="GO1e90xstaqXlvDwQSsc-18" vertex="1">
          <mxGeometry width="30" height="30" as="geometry">
            <mxRectangle width="30" height="30" as="alternateBounds" />
          </mxGeometry>
        </mxCell>
        <mxCell id="GO1e90xstaqXlvDwQSsc-20" value="name : (string)" style="shape=partialRectangle;connectable=0;fillColor=none;top=0;left=0;bottom=0;right=0;align=left;spacingLeft=6;overflow=hidden;" parent="GO1e90xstaqXlvDwQSsc-18" vertex="1">
          <mxGeometry x="30" width="140" height="30" as="geometry">
            <mxRectangle width="140" height="30" as="alternateBounds" />
          </mxGeometry>
        </mxCell>
        <mxCell id="GO1e90xstaqXlvDwQSsc-21" value="" style="shape=tableRow;horizontal=0;startSize=0;swimlaneHead=0;swimlaneBody=0;fillColor=none;collapsible=0;dropTarget=0;points=[[0,0.5],[1,0.5]];portConstraint=eastwest;top=0;left=0;right=0;bottom=0;" parent="GO1e90xstaqXlvDwQSsc-14" vertex="1">
          <mxGeometry y="90" width="170" height="30" as="geometry" />
        </mxCell>
        <mxCell id="GO1e90xstaqXlvDwQSsc-22" value="" style="shape=partialRectangle;connectable=0;fillColor=none;top=0;left=0;bottom=0;right=0;editable=1;overflow=hidden;" parent="GO1e90xstaqXlvDwQSsc-21" vertex="1">
          <mxGeometry width="30" height="30" as="geometry">
            <mxRectangle width="30" height="30" as="alternateBounds" />
          </mxGeometry>
        </mxCell>
        <mxCell id="GO1e90xstaqXlvDwQSsc-23" value="level : (string)" style="shape=partialRectangle;connectable=0;fillColor=none;top=0;left=0;bottom=0;right=0;align=left;spacingLeft=6;overflow=hidden;" parent="GO1e90xstaqXlvDwQSsc-21" vertex="1">
          <mxGeometry x="30" width="140" height="30" as="geometry">
            <mxRectangle width="140" height="30" as="alternateBounds" />
          </mxGeometry>
        </mxCell>
        <mxCell id="GO1e90xstaqXlvDwQSsc-24" value="" style="shape=tableRow;horizontal=0;startSize=0;swimlaneHead=0;swimlaneBody=0;fillColor=none;collapsible=0;dropTarget=0;points=[[0,0.5],[1,0.5]];portConstraint=eastwest;top=0;left=0;right=0;bottom=0;" parent="GO1e90xstaqXlvDwQSsc-14" vertex="1">
          <mxGeometry y="120" width="170" height="30" as="geometry" />
        </mxCell>
        <mxCell id="GO1e90xstaqXlvDwQSsc-25" value="" style="shape=partialRectangle;connectable=0;fillColor=none;top=0;left=0;bottom=0;right=0;editable=1;overflow=hidden;" parent="GO1e90xstaqXlvDwQSsc-24" vertex="1">
          <mxGeometry width="30" height="30" as="geometry">
            <mxRectangle width="30" height="30" as="alternateBounds" />
          </mxGeometry>
        </mxCell>
        <mxCell id="GO1e90xstaqXlvDwQSsc-26" value="expired : (int)" style="shape=partialRectangle;connectable=0;fillColor=none;top=0;left=0;bottom=0;right=0;align=left;spacingLeft=6;overflow=hidden;" parent="GO1e90xstaqXlvDwQSsc-24" vertex="1">
          <mxGeometry x="30" width="140" height="30" as="geometry">
            <mxRectangle width="140" height="30" as="alternateBounds" />
          </mxGeometry>
        </mxCell>
        <mxCell id="GO1e90xstaqXlvDwQSsc-27" value="" style="shape=tableRow;horizontal=0;startSize=0;swimlaneHead=0;swimlaneBody=0;fillColor=none;collapsible=0;dropTarget=0;points=[[0,0.5],[1,0.5]];portConstraint=eastwest;top=0;left=0;right=0;bottom=0;" parent="GO1e90xstaqXlvDwQSsc-14" vertex="1">
          <mxGeometry y="150" width="170" height="30" as="geometry" />
        </mxCell>
        <mxCell id="GO1e90xstaqXlvDwQSsc-28" value="" style="shape=partialRectangle;connectable=0;fillColor=none;top=0;left=0;bottom=0;right=0;editable=1;overflow=hidden;" parent="GO1e90xstaqXlvDwQSsc-27" vertex="1">
          <mxGeometry width="30" height="30" as="geometry">
            <mxRectangle width="30" height="30" as="alternateBounds" />
          </mxGeometry>
        </mxCell>
        <mxCell id="GO1e90xstaqXlvDwQSsc-29" value="contact : {email:(string),&#xa;mobile:(string)}" style="shape=partialRectangle;connectable=0;fillColor=none;top=0;left=0;bottom=0;right=0;align=left;spacingLeft=6;overflow=hidden;" parent="GO1e90xstaqXlvDwQSsc-27" vertex="1">
          <mxGeometry x="30" width="140" height="30" as="geometry">
            <mxRectangle width="140" height="30" as="alternateBounds" />
          </mxGeometry>
        </mxCell>
        <mxCell id="GO1e90xstaqXlvDwQSsc-30" value="" style="shape=tableRow;horizontal=0;startSize=0;swimlaneHead=0;swimlaneBody=0;fillColor=none;collapsible=0;dropTarget=0;points=[[0,0.5],[1,0.5]];portConstraint=eastwest;top=0;left=0;right=0;bottom=0;" parent="GO1e90xstaqXlvDwQSsc-14" vertex="1">
          <mxGeometry y="180" width="170" height="30" as="geometry" />
        </mxCell>
        <mxCell id="GO1e90xstaqXlvDwQSsc-31" value="" style="shape=partialRectangle;connectable=0;fillColor=none;top=0;left=0;bottom=0;right=0;editable=1;overflow=hidden;" parent="GO1e90xstaqXlvDwQSsc-30" vertex="1">
          <mxGeometry width="30" height="30" as="geometry">
            <mxRectangle width="30" height="30" as="alternateBounds" />
          </mxGeometry>
        </mxCell>
        <mxCell id="GO1e90xstaqXlvDwQSsc-32" value="address : (string)" style="shape=partialRectangle;connectable=0;fillColor=none;top=0;left=0;bottom=0;right=0;align=left;spacingLeft=6;overflow=hidden;" parent="GO1e90xstaqXlvDwQSsc-30" vertex="1">
          <mxGeometry x="30" width="140" height="30" as="geometry">
            <mxRectangle width="140" height="30" as="alternateBounds" />
          </mxGeometry>
        </mxCell>
        <mxCell id="GO1e90xstaqXlvDwQSsc-33" value="" style="shape=tableRow;horizontal=0;startSize=0;swimlaneHead=0;swimlaneBody=0;fillColor=none;collapsible=0;dropTarget=0;points=[[0,0.5],[1,0.5]];portConstraint=eastwest;top=0;left=0;right=0;bottom=0;" parent="GO1e90xstaqXlvDwQSsc-14" vertex="1">
          <mxGeometry y="210" width="170" height="30" as="geometry" />
        </mxCell>
        <mxCell id="GO1e90xstaqXlvDwQSsc-34" value="" style="shape=partialRectangle;connectable=0;fillColor=none;top=0;left=0;bottom=0;right=0;editable=1;overflow=hidden;" parent="GO1e90xstaqXlvDwQSsc-33" vertex="1">
          <mxGeometry width="30" height="30" as="geometry">
            <mxRectangle width="30" height="30" as="alternateBounds" />
          </mxGeometry>
        </mxCell>
        <mxCell id="GO1e90xstaqXlvDwQSsc-35" value="users : [&quot;&quot;,&quot;&quot;]" style="shape=partialRectangle;connectable=0;fillColor=none;top=0;left=0;bottom=0;right=0;align=left;spacingLeft=6;overflow=hidden;" parent="GO1e90xstaqXlvDwQSsc-33" vertex="1">
          <mxGeometry x="30" width="140" height="30" as="geometry">
            <mxRectangle width="140" height="30" as="alternateBounds" />
          </mxGeometry>
        </mxCell>
        <mxCell id="huxQKb0KZZLIL76tW-9W-10" value="" style="shape=tableRow;horizontal=0;startSize=0;swimlaneHead=0;swimlaneBody=0;fillColor=none;collapsible=0;dropTarget=0;points=[[0,0.5],[1,0.5]];portConstraint=eastwest;top=0;left=0;right=0;bottom=0;" parent="GO1e90xstaqXlvDwQSsc-14" vertex="1">
          <mxGeometry y="240" width="170" height="30" as="geometry" />
        </mxCell>
        <mxCell id="huxQKb0KZZLIL76tW-9W-11" value="" style="shape=partialRectangle;connectable=0;fillColor=none;top=0;left=0;bottom=0;right=0;editable=1;overflow=hidden;" parent="huxQKb0KZZLIL76tW-9W-10" vertex="1">
          <mxGeometry width="30" height="30" as="geometry">
            <mxRectangle width="30" height="30" as="alternateBounds" />
          </mxGeometry>
        </mxCell>
        <mxCell id="huxQKb0KZZLIL76tW-9W-12" value="shipto : {objectship}" style="shape=partialRectangle;connectable=0;fillColor=none;top=0;left=0;bottom=0;right=0;align=left;spacingLeft=6;overflow=hidden;" parent="huxQKb0KZZLIL76tW-9W-10" vertex="1">
          <mxGeometry x="30" width="140" height="30" as="geometry">
            <mxRectangle width="140" height="30" as="alternateBounds" />
          </mxGeometry>
        </mxCell>
        <mxCell id="GO1e90xstaqXlvDwQSsc-232" style="edgeStyle=orthogonalEdgeStyle;rounded=0;orthogonalLoop=1;jettySize=auto;html=1;exitX=1;exitY=0.5;exitDx=0;exitDy=0;" parent="1" source="GO1e90xstaqXlvDwQSsc-40" target="GO1e90xstaqXlvDwQSsc-130" edge="1">
          <mxGeometry relative="1" as="geometry">
            <mxPoint x="530" y="-30" as="targetPoint" />
            <Array as="points">
              <mxPoint x="494" y="85" />
              <mxPoint x="494" y="-30" />
            </Array>
          </mxGeometry>
        </mxCell>
        <mxCell id="GO1e90xstaqXlvDwQSsc-36" value="db_{{idcompany}}" style="shape=table;startSize=30;container=1;collapsible=1;childLayout=tableLayout;fixedRows=1;rowLines=0;fontStyle=1;align=center;resizeLast=1;fillColor=#f8cecc;strokeColor=#b85450;" parent="1" vertex="1">
          <mxGeometry x="220" y="10" width="230" height="390" as="geometry" />
        </mxCell>
        <mxCell id="GO1e90xstaqXlvDwQSsc-37" value="" style="shape=tableRow;horizontal=0;startSize=0;swimlaneHead=0;swimlaneBody=0;fillColor=none;collapsible=0;dropTarget=0;points=[[0,0.5],[1,0.5]];portConstraint=eastwest;top=0;left=0;right=0;bottom=1;" parent="GO1e90xstaqXlvDwQSsc-36" vertex="1">
          <mxGeometry y="30" width="230" height="30" as="geometry" />
        </mxCell>
        <mxCell id="GO1e90xstaqXlvDwQSsc-38" value="" style="shape=partialRectangle;connectable=0;fillColor=none;top=0;left=0;bottom=0;right=0;fontStyle=1;overflow=hidden;" parent="GO1e90xstaqXlvDwQSsc-37" vertex="1">
          <mxGeometry width="30" height="30" as="geometry">
            <mxRectangle width="30" height="30" as="alternateBounds" />
          </mxGeometry>
        </mxCell>
        <mxCell id="GO1e90xstaqXlvDwQSsc-39" value="" style="shape=partialRectangle;connectable=0;fillColor=none;top=0;left=0;bottom=0;right=0;align=left;spacingLeft=6;fontStyle=5;overflow=hidden;" parent="GO1e90xstaqXlvDwQSsc-37" vertex="1">
          <mxGeometry x="30" width="200" height="30" as="geometry">
            <mxRectangle width="200" height="30" as="alternateBounds" />
          </mxGeometry>
        </mxCell>
        <mxCell id="GO1e90xstaqXlvDwQSsc-40" value="" style="shape=tableRow;horizontal=0;startSize=0;swimlaneHead=0;swimlaneBody=0;fillColor=none;collapsible=0;dropTarget=0;points=[[0,0.5],[1,0.5]];portConstraint=eastwest;top=0;left=0;right=0;bottom=0;" parent="GO1e90xstaqXlvDwQSsc-36" vertex="1">
          <mxGeometry y="60" width="230" height="30" as="geometry" />
        </mxCell>
        <mxCell id="GO1e90xstaqXlvDwQSsc-41" value="" style="shape=partialRectangle;connectable=0;fillColor=none;top=0;left=0;bottom=0;right=0;editable=1;overflow=hidden;" parent="GO1e90xstaqXlvDwQSsc-40" vertex="1">
          <mxGeometry width="30" height="30" as="geometry">
            <mxRectangle width="30" height="30" as="alternateBounds" />
          </mxGeometry>
        </mxCell>
        <mxCell id="GO1e90xstaqXlvDwQSsc-42" value="document -&gt; table : &quot;role&quot;" style="shape=partialRectangle;connectable=0;fillColor=none;top=0;left=0;bottom=0;right=0;align=left;spacingLeft=6;overflow=hidden;fontColor=#00FFFF;" parent="GO1e90xstaqXlvDwQSsc-40" vertex="1">
          <mxGeometry x="30" width="200" height="30" as="geometry">
            <mxRectangle width="200" height="30" as="alternateBounds" />
          </mxGeometry>
        </mxCell>
        <mxCell id="GO1e90xstaqXlvDwQSsc-43" value="" style="shape=tableRow;horizontal=0;startSize=0;swimlaneHead=0;swimlaneBody=0;fillColor=none;collapsible=0;dropTarget=0;points=[[0,0.5],[1,0.5]];portConstraint=eastwest;top=0;left=0;right=0;bottom=0;" parent="GO1e90xstaqXlvDwQSsc-36" vertex="1">
          <mxGeometry y="90" width="230" height="30" as="geometry" />
        </mxCell>
        <mxCell id="GO1e90xstaqXlvDwQSsc-44" value="" style="shape=partialRectangle;connectable=0;fillColor=none;top=0;left=0;bottom=0;right=0;editable=1;overflow=hidden;" parent="GO1e90xstaqXlvDwQSsc-43" vertex="1">
          <mxGeometry width="30" height="30" as="geometry">
            <mxRectangle width="30" height="30" as="alternateBounds" />
          </mxGeometry>
        </mxCell>
        <mxCell id="GO1e90xstaqXlvDwQSsc-45" value="document -&gt; table : &quot;user&quot;" style="shape=partialRectangle;connectable=0;fillColor=none;top=0;left=0;bottom=0;right=0;align=left;spacingLeft=6;overflow=hidden;strokeColor=#3333FF;fontColor=#3333FF;" parent="GO1e90xstaqXlvDwQSsc-43" vertex="1">
          <mxGeometry x="30" width="200" height="30" as="geometry">
            <mxRectangle width="200" height="30" as="alternateBounds" />
          </mxGeometry>
        </mxCell>
        <mxCell id="GO1e90xstaqXlvDwQSsc-46" value="" style="shape=tableRow;horizontal=0;startSize=0;swimlaneHead=0;swimlaneBody=0;fillColor=none;collapsible=0;dropTarget=0;points=[[0,0.5],[1,0.5]];portConstraint=eastwest;top=0;left=0;right=0;bottom=0;" parent="GO1e90xstaqXlvDwQSsc-36" vertex="1">
          <mxGeometry y="120" width="230" height="30" as="geometry" />
        </mxCell>
        <mxCell id="GO1e90xstaqXlvDwQSsc-47" value="" style="shape=partialRectangle;connectable=0;fillColor=none;top=0;left=0;bottom=0;right=0;editable=1;overflow=hidden;" parent="GO1e90xstaqXlvDwQSsc-46" vertex="1">
          <mxGeometry width="30" height="30" as="geometry">
            <mxRectangle width="30" height="30" as="alternateBounds" />
          </mxGeometry>
        </mxCell>
        <mxCell id="GO1e90xstaqXlvDwQSsc-48" value="document -&gt; table : &quot;warehouse&quot;" style="shape=partialRectangle;connectable=0;fillColor=none;top=0;left=0;bottom=0;right=0;align=left;spacingLeft=6;overflow=hidden;fontColor=#FF33FF;" parent="GO1e90xstaqXlvDwQSsc-46" vertex="1">
          <mxGeometry x="30" width="200" height="30" as="geometry">
            <mxRectangle width="200" height="30" as="alternateBounds" />
          </mxGeometry>
        </mxCell>
        <mxCell id="GO1e90xstaqXlvDwQSsc-49" value="" style="shape=tableRow;horizontal=0;startSize=0;swimlaneHead=0;swimlaneBody=0;fillColor=none;collapsible=0;dropTarget=0;points=[[0,0.5],[1,0.5]];portConstraint=eastwest;top=0;left=0;right=0;bottom=0;" parent="GO1e90xstaqXlvDwQSsc-36" vertex="1">
          <mxGeometry y="150" width="230" height="30" as="geometry" />
        </mxCell>
        <mxCell id="GO1e90xstaqXlvDwQSsc-50" value="" style="shape=partialRectangle;connectable=0;fillColor=none;top=0;left=0;bottom=0;right=0;editable=1;overflow=hidden;" parent="GO1e90xstaqXlvDwQSsc-49" vertex="1">
          <mxGeometry width="30" height="30" as="geometry">
            <mxRectangle width="30" height="30" as="alternateBounds" />
          </mxGeometry>
        </mxCell>
        <mxCell id="GO1e90xstaqXlvDwQSsc-51" value="document -&gt; table : &quot;column&quot;" style="shape=partialRectangle;connectable=0;fillColor=none;top=0;left=0;bottom=0;right=0;align=left;spacingLeft=6;overflow=hidden;fontColor=#CCCC00;" parent="GO1e90xstaqXlvDwQSsc-49" vertex="1">
          <mxGeometry x="30" width="200" height="30" as="geometry">
            <mxRectangle width="200" height="30" as="alternateBounds" />
          </mxGeometry>
        </mxCell>
        <mxCell id="GO1e90xstaqXlvDwQSsc-52" value="" style="shape=tableRow;horizontal=0;startSize=0;swimlaneHead=0;swimlaneBody=0;fillColor=none;collapsible=0;dropTarget=0;points=[[0,0.5],[1,0.5]];portConstraint=eastwest;top=0;left=0;right=0;bottom=0;" parent="GO1e90xstaqXlvDwQSsc-36" vertex="1">
          <mxGeometry y="180" width="230" height="30" as="geometry" />
        </mxCell>
        <mxCell id="GO1e90xstaqXlvDwQSsc-53" value="" style="shape=partialRectangle;connectable=0;fillColor=none;top=0;left=0;bottom=0;right=0;editable=1;overflow=hidden;" parent="GO1e90xstaqXlvDwQSsc-52" vertex="1">
          <mxGeometry width="30" height="30" as="geometry">
            <mxRectangle width="30" height="30" as="alternateBounds" />
          </mxGeometry>
        </mxCell>
        <mxCell id="GO1e90xstaqXlvDwQSsc-54" value="document -&gt; table : &quot;row&quot;" style="shape=partialRectangle;connectable=0;fillColor=none;top=0;left=0;bottom=0;right=0;align=left;spacingLeft=6;overflow=hidden;fontColor=#33FF33;" parent="GO1e90xstaqXlvDwQSsc-52" vertex="1">
          <mxGeometry x="30" width="200" height="30" as="geometry">
            <mxRectangle width="200" height="30" as="alternateBounds" />
          </mxGeometry>
        </mxCell>
        <mxCell id="GO1e90xstaqXlvDwQSsc-55" value="" style="shape=tableRow;horizontal=0;startSize=0;swimlaneHead=0;swimlaneBody=0;fillColor=none;collapsible=0;dropTarget=0;points=[[0,0.5],[1,0.5]];portConstraint=eastwest;top=0;left=0;right=0;bottom=0;" parent="GO1e90xstaqXlvDwQSsc-36" vertex="1">
          <mxGeometry y="210" width="230" height="30" as="geometry" />
        </mxCell>
        <mxCell id="GO1e90xstaqXlvDwQSsc-56" value="" style="shape=partialRectangle;connectable=0;fillColor=none;top=0;left=0;bottom=0;right=0;editable=1;overflow=hidden;" parent="GO1e90xstaqXlvDwQSsc-55" vertex="1">
          <mxGeometry width="30" height="30" as="geometry">
            <mxRectangle width="30" height="30" as="alternateBounds" />
          </mxGeometry>
        </mxCell>
        <mxCell id="GO1e90xstaqXlvDwQSsc-57" value="document -&gt; table : &quot;product&quot;" style="shape=partialRectangle;connectable=0;fillColor=none;top=0;left=0;bottom=0;right=0;align=left;spacingLeft=6;overflow=hidden;strokeColor=#67AB9F;fontColor=#67AB9F;" parent="GO1e90xstaqXlvDwQSsc-55" vertex="1">
          <mxGeometry x="30" width="200" height="30" as="geometry">
            <mxRectangle width="200" height="30" as="alternateBounds" />
          </mxGeometry>
        </mxCell>
        <mxCell id="GO1e90xstaqXlvDwQSsc-92" value="" style="shape=tableRow;horizontal=0;startSize=0;swimlaneHead=0;swimlaneBody=0;fillColor=none;collapsible=0;dropTarget=0;points=[[0,0.5],[1,0.5]];portConstraint=eastwest;top=0;left=0;right=0;bottom=0;" parent="GO1e90xstaqXlvDwQSsc-36" vertex="1">
          <mxGeometry y="240" width="230" height="30" as="geometry" />
        </mxCell>
        <mxCell id="GO1e90xstaqXlvDwQSsc-93" value="" style="shape=partialRectangle;connectable=0;fillColor=none;top=0;left=0;bottom=0;right=0;editable=1;overflow=hidden;" parent="GO1e90xstaqXlvDwQSsc-92" vertex="1">
          <mxGeometry width="30" height="30" as="geometry">
            <mxRectangle width="30" height="30" as="alternateBounds" />
          </mxGeometry>
        </mxCell>
        <mxCell id="GO1e90xstaqXlvDwQSsc-94" value="document -&gt; table : &quot;moves&quot;" style="shape=partialRectangle;connectable=0;fillColor=none;top=0;left=0;bottom=0;right=0;align=left;spacingLeft=6;overflow=hidden;strokeColor=#990099;fontColor=#990099;" parent="GO1e90xstaqXlvDwQSsc-92" vertex="1">
          <mxGeometry x="30" width="200" height="30" as="geometry">
            <mxRectangle width="200" height="30" as="alternateBounds" />
          </mxGeometry>
        </mxCell>
        <mxCell id="GO1e90xstaqXlvDwQSsc-98" value="" style="shape=tableRow;horizontal=0;startSize=0;swimlaneHead=0;swimlaneBody=0;fillColor=none;collapsible=0;dropTarget=0;points=[[0,0.5],[1,0.5]];portConstraint=eastwest;top=0;left=0;right=0;bottom=0;" parent="GO1e90xstaqXlvDwQSsc-36" vertex="1">
          <mxGeometry y="270" width="230" height="30" as="geometry" />
        </mxCell>
        <mxCell id="GO1e90xstaqXlvDwQSsc-99" value="" style="shape=partialRectangle;connectable=0;fillColor=none;top=0;left=0;bottom=0;right=0;editable=1;overflow=hidden;" parent="GO1e90xstaqXlvDwQSsc-98" vertex="1">
          <mxGeometry width="30" height="30" as="geometry">
            <mxRectangle width="30" height="30" as="alternateBounds" />
          </mxGeometry>
        </mxCell>
        <mxCell id="GO1e90xstaqXlvDwQSsc-100" value="document -&gt; table : &quot;invoice&quot;" style="shape=partialRectangle;connectable=0;fillColor=none;top=0;left=0;bottom=0;right=0;align=left;spacingLeft=6;overflow=hidden;fontColor=#3B83FF;" parent="GO1e90xstaqXlvDwQSsc-98" vertex="1">
          <mxGeometry x="30" width="200" height="30" as="geometry">
            <mxRectangle width="200" height="30" as="alternateBounds" />
          </mxGeometry>
        </mxCell>
        <mxCell id="GO1e90xstaqXlvDwQSsc-331" value="" style="shape=tableRow;horizontal=0;startSize=0;swimlaneHead=0;swimlaneBody=0;fillColor=none;collapsible=0;dropTarget=0;points=[[0,0.5],[1,0.5]];portConstraint=eastwest;top=0;left=0;right=0;bottom=0;" parent="GO1e90xstaqXlvDwQSsc-36" vertex="1">
          <mxGeometry y="300" width="230" height="30" as="geometry" />
        </mxCell>
        <mxCell id="GO1e90xstaqXlvDwQSsc-332" value="" style="shape=partialRectangle;connectable=0;fillColor=none;top=0;left=0;bottom=0;right=0;editable=1;overflow=hidden;" parent="GO1e90xstaqXlvDwQSsc-331" vertex="1">
          <mxGeometry width="30" height="30" as="geometry">
            <mxRectangle width="30" height="30" as="alternateBounds" />
          </mxGeometry>
        </mxCell>
        <mxCell id="GO1e90xstaqXlvDwQSsc-333" value="document -&gt; table : &quot;po&quot;" style="shape=partialRectangle;connectable=0;fillColor=none;top=0;left=0;bottom=0;right=0;align=left;spacingLeft=6;overflow=hidden;" parent="GO1e90xstaqXlvDwQSsc-331" vertex="1">
          <mxGeometry x="30" width="200" height="30" as="geometry">
            <mxRectangle width="200" height="30" as="alternateBounds" />
          </mxGeometry>
        </mxCell>
        <mxCell id="huxQKb0KZZLIL76tW-9W-4" value="" style="shape=tableRow;horizontal=0;startSize=0;swimlaneHead=0;swimlaneBody=0;fillColor=none;collapsible=0;dropTarget=0;points=[[0,0.5],[1,0.5]];portConstraint=eastwest;top=0;left=0;right=0;bottom=0;" parent="GO1e90xstaqXlvDwQSsc-36" vertex="1">
          <mxGeometry y="330" width="230" height="30" as="geometry" />
        </mxCell>
        <mxCell id="huxQKb0KZZLIL76tW-9W-5" value="" style="shape=partialRectangle;connectable=0;fillColor=none;top=0;left=0;bottom=0;right=0;editable=1;overflow=hidden;" parent="huxQKb0KZZLIL76tW-9W-4" vertex="1">
          <mxGeometry width="30" height="30" as="geometry">
            <mxRectangle width="30" height="30" as="alternateBounds" />
          </mxGeometry>
        </mxCell>
        <mxCell id="huxQKb0KZZLIL76tW-9W-6" value="document -&gt; table : &quot;thirdparty&quot;" style="shape=partialRectangle;connectable=0;fillColor=none;top=0;left=0;bottom=0;right=0;align=left;spacingLeft=6;overflow=hidden;" parent="huxQKb0KZZLIL76tW-9W-4" vertex="1">
          <mxGeometry x="30" width="200" height="30" as="geometry">
            <mxRectangle width="200" height="30" as="alternateBounds" />
          </mxGeometry>
        </mxCell>
        <mxCell id="huxQKb0KZZLIL76tW-9W-15" value="" style="shape=tableRow;horizontal=0;startSize=0;swimlaneHead=0;swimlaneBody=0;fillColor=none;collapsible=0;dropTarget=0;points=[[0,0.5],[1,0.5]];portConstraint=eastwest;top=0;left=0;right=0;bottom=0;" parent="GO1e90xstaqXlvDwQSsc-36" vertex="1">
          <mxGeometry y="360" width="230" height="30" as="geometry" />
        </mxCell>
        <mxCell id="huxQKb0KZZLIL76tW-9W-16" value="" style="shape=partialRectangle;connectable=0;fillColor=none;top=0;left=0;bottom=0;right=0;editable=1;overflow=hidden;" parent="huxQKb0KZZLIL76tW-9W-15" vertex="1">
          <mxGeometry width="30" height="30" as="geometry">
            <mxRectangle width="30" height="30" as="alternateBounds" />
          </mxGeometry>
        </mxCell>
        <mxCell id="huxQKb0KZZLIL76tW-9W-17" value="document -&gt; table : &quot;detailinvoice&quot;" style="shape=partialRectangle;connectable=0;fillColor=none;top=0;left=0;bottom=0;right=0;align=left;spacingLeft=6;overflow=hidden;" parent="huxQKb0KZZLIL76tW-9W-15" vertex="1">
          <mxGeometry x="30" width="200" height="30" as="geometry">
            <mxRectangle width="200" height="30" as="alternateBounds" />
          </mxGeometry>
        </mxCell>
        <mxCell id="GO1e90xstaqXlvDwQSsc-133" value="doc &gt; table :&quot;user&quot;" style="swimlane;childLayout=stackLayout;horizontal=1;startSize=30;horizontalStack=0;rounded=1;fontSize=14;fontStyle=0;strokeWidth=2;resizeParent=0;resizeLast=1;shadow=0;dashed=0;align=center;fontColor=#3333FF;strokeColor=#0000FF;" parent="1" vertex="1">
          <mxGeometry x="550" y="80" width="220" height="120" as="geometry" />
        </mxCell>
        <mxCell id="GO1e90xstaqXlvDwQSsc-134" value="username : (string, unique)&#xa;password : (string, unique, md5)&#xa;contact : {email:string,mobile:string}&#xa;role : (string)&#xa;isactive : (bool)&#xa;table : &quot;user&quot;&#xa;&#xa;" style="align=left;strokeColor=none;fillColor=none;spacingLeft=4;fontSize=12;verticalAlign=top;resizable=0;rotatable=0;part=1;" parent="GO1e90xstaqXlvDwQSsc-133" vertex="1">
          <mxGeometry y="30" width="220" height="90" as="geometry" />
        </mxCell>
        <mxCell id="GO1e90xstaqXlvDwQSsc-142" value="db - mastermenu" style="shape=table;startSize=30;container=1;collapsible=1;childLayout=tableLayout;fixedRows=1;rowLines=0;fontStyle=1;align=center;resizeLast=1;fillColor=#fff2cc;strokeColor=#d6b656;" parent="1" vertex="1">
          <mxGeometry x="825" y="-60" width="240" height="260" as="geometry" />
        </mxCell>
        <mxCell id="GO1e90xstaqXlvDwQSsc-143" value="" style="shape=tableRow;horizontal=0;startSize=0;swimlaneHead=0;swimlaneBody=0;fillColor=none;collapsible=0;dropTarget=0;points=[[0,0.5],[1,0.5]];portConstraint=eastwest;top=0;left=0;right=0;bottom=1;" parent="GO1e90xstaqXlvDwQSsc-142" vertex="1">
          <mxGeometry y="30" width="240" height="30" as="geometry" />
        </mxCell>
        <mxCell id="GO1e90xstaqXlvDwQSsc-144" value="PK" style="shape=partialRectangle;connectable=0;fillColor=none;top=0;left=0;bottom=0;right=0;fontStyle=1;overflow=hidden;" parent="GO1e90xstaqXlvDwQSsc-143" vertex="1">
          <mxGeometry width="30" height="30" as="geometry">
            <mxRectangle width="30" height="30" as="alternateBounds" />
          </mxGeometry>
        </mxCell>
        <mxCell id="GO1e90xstaqXlvDwQSsc-145" value="_id" style="shape=partialRectangle;connectable=0;fillColor=none;top=0;left=0;bottom=0;right=0;align=left;spacingLeft=6;fontStyle=5;overflow=hidden;" parent="GO1e90xstaqXlvDwQSsc-143" vertex="1">
          <mxGeometry x="30" width="210" height="30" as="geometry">
            <mxRectangle width="210" height="30" as="alternateBounds" />
          </mxGeometry>
        </mxCell>
        <mxCell id="GO1e90xstaqXlvDwQSsc-146" value="" style="shape=tableRow;horizontal=0;startSize=0;swimlaneHead=0;swimlaneBody=0;fillColor=none;collapsible=0;dropTarget=0;points=[[0,0.5],[1,0.5]];portConstraint=eastwest;top=0;left=0;right=0;bottom=0;" parent="GO1e90xstaqXlvDwQSsc-142" vertex="1">
          <mxGeometry y="60" width="240" height="30" as="geometry" />
        </mxCell>
        <mxCell id="GO1e90xstaqXlvDwQSsc-147" value="" style="shape=partialRectangle;connectable=0;fillColor=none;top=0;left=0;bottom=0;right=0;editable=1;overflow=hidden;" parent="GO1e90xstaqXlvDwQSsc-146" vertex="1">
          <mxGeometry width="30" height="30" as="geometry">
            <mxRectangle width="30" height="30" as="alternateBounds" />
          </mxGeometry>
        </mxCell>
        <mxCell id="GO1e90xstaqXlvDwQSsc-148" value="name : (string, unique)" style="shape=partialRectangle;connectable=0;fillColor=none;top=0;left=0;bottom=0;right=0;align=left;spacingLeft=6;overflow=hidden;" parent="GO1e90xstaqXlvDwQSsc-146" vertex="1">
          <mxGeometry x="30" width="210" height="30" as="geometry">
            <mxRectangle width="210" height="30" as="alternateBounds" />
          </mxGeometry>
        </mxCell>
        <mxCell id="GO1e90xstaqXlvDwQSsc-149" value="" style="shape=tableRow;horizontal=0;startSize=0;swimlaneHead=0;swimlaneBody=0;fillColor=none;collapsible=0;dropTarget=0;points=[[0,0.5],[1,0.5]];portConstraint=eastwest;top=0;left=0;right=0;bottom=0;" parent="GO1e90xstaqXlvDwQSsc-142" vertex="1">
          <mxGeometry y="90" width="240" height="30" as="geometry" />
        </mxCell>
        <mxCell id="GO1e90xstaqXlvDwQSsc-150" value="" style="shape=partialRectangle;connectable=0;fillColor=none;top=0;left=0;bottom=0;right=0;editable=1;overflow=hidden;" parent="GO1e90xstaqXlvDwQSsc-149" vertex="1">
          <mxGeometry width="30" height="30" as="geometry">
            <mxRectangle width="30" height="30" as="alternateBounds" />
          </mxGeometry>
        </mxCell>
        <mxCell id="GO1e90xstaqXlvDwQSsc-151" value="codename : (string, unique)" style="shape=partialRectangle;connectable=0;fillColor=none;top=0;left=0;bottom=0;right=0;align=left;spacingLeft=6;overflow=hidden;" parent="GO1e90xstaqXlvDwQSsc-149" vertex="1">
          <mxGeometry x="30" width="210" height="30" as="geometry">
            <mxRectangle width="210" height="30" as="alternateBounds" />
          </mxGeometry>
        </mxCell>
        <mxCell id="GO1e90xstaqXlvDwQSsc-152" value="" style="shape=tableRow;horizontal=0;startSize=0;swimlaneHead=0;swimlaneBody=0;fillColor=none;collapsible=0;dropTarget=0;points=[[0,0.5],[1,0.5]];portConstraint=eastwest;top=0;left=0;right=0;bottom=0;" parent="GO1e90xstaqXlvDwQSsc-142" vertex="1">
          <mxGeometry y="120" width="240" height="30" as="geometry" />
        </mxCell>
        <mxCell id="GO1e90xstaqXlvDwQSsc-153" value="" style="shape=partialRectangle;connectable=0;fillColor=none;top=0;left=0;bottom=0;right=0;editable=1;overflow=hidden;" parent="GO1e90xstaqXlvDwQSsc-152" vertex="1">
          <mxGeometry width="30" height="30" as="geometry">
            <mxRectangle width="30" height="30" as="alternateBounds" />
          </mxGeometry>
        </mxCell>
        <mxCell id="GO1e90xstaqXlvDwQSsc-154" value="icon : (string)" style="shape=partialRectangle;connectable=0;fillColor=none;top=0;left=0;bottom=0;right=0;align=left;spacingLeft=6;overflow=hidden;" parent="GO1e90xstaqXlvDwQSsc-152" vertex="1">
          <mxGeometry x="30" width="210" height="30" as="geometry">
            <mxRectangle width="210" height="30" as="alternateBounds" />
          </mxGeometry>
        </mxCell>
        <mxCell id="GO1e90xstaqXlvDwQSsc-155" value="" style="shape=tableRow;horizontal=0;startSize=0;swimlaneHead=0;swimlaneBody=0;fillColor=none;collapsible=0;dropTarget=0;points=[[0,0.5],[1,0.5]];portConstraint=eastwest;top=0;left=0;right=0;bottom=0;" parent="GO1e90xstaqXlvDwQSsc-142" vertex="1">
          <mxGeometry y="150" width="240" height="30" as="geometry" />
        </mxCell>
        <mxCell id="GO1e90xstaqXlvDwQSsc-156" value="" style="shape=partialRectangle;connectable=0;fillColor=none;top=0;left=0;bottom=0;right=0;editable=1;overflow=hidden;" parent="GO1e90xstaqXlvDwQSsc-155" vertex="1">
          <mxGeometry width="30" height="30" as="geometry">
            <mxRectangle width="30" height="30" as="alternateBounds" />
          </mxGeometry>
        </mxCell>
        <mxCell id="GO1e90xstaqXlvDwQSsc-157" value="url : (string)" style="shape=partialRectangle;connectable=0;fillColor=none;top=0;left=0;bottom=0;right=0;align=left;spacingLeft=6;overflow=hidden;" parent="GO1e90xstaqXlvDwQSsc-155" vertex="1">
          <mxGeometry x="30" width="210" height="30" as="geometry">
            <mxRectangle width="210" height="30" as="alternateBounds" />
          </mxGeometry>
        </mxCell>
        <mxCell id="GO1e90xstaqXlvDwQSsc-158" value="" style="shape=tableRow;horizontal=0;startSize=0;swimlaneHead=0;swimlaneBody=0;fillColor=none;collapsible=0;dropTarget=0;points=[[0,0.5],[1,0.5]];portConstraint=eastwest;top=0;left=0;right=0;bottom=0;" parent="GO1e90xstaqXlvDwQSsc-142" vertex="1">
          <mxGeometry y="180" width="240" height="30" as="geometry" />
        </mxCell>
        <mxCell id="GO1e90xstaqXlvDwQSsc-159" value="" style="shape=partialRectangle;connectable=0;fillColor=none;top=0;left=0;bottom=0;right=0;editable=1;overflow=hidden;" parent="GO1e90xstaqXlvDwQSsc-158" vertex="1">
          <mxGeometry width="30" height="30" as="geometry">
            <mxRectangle width="30" height="30" as="alternateBounds" />
          </mxGeometry>
        </mxCell>
        <mxCell id="GO1e90xstaqXlvDwQSsc-160" value="desc : (string)" style="shape=partialRectangle;connectable=0;fillColor=none;top=0;left=0;bottom=0;right=0;align=left;spacingLeft=6;overflow=hidden;" parent="GO1e90xstaqXlvDwQSsc-158" vertex="1">
          <mxGeometry x="30" width="210" height="30" as="geometry">
            <mxRectangle width="210" height="30" as="alternateBounds" />
          </mxGeometry>
        </mxCell>
        <mxCell id="GO1e90xstaqXlvDwQSsc-161" value="" style="shape=tableRow;horizontal=0;startSize=0;swimlaneHead=0;swimlaneBody=0;fillColor=none;collapsible=0;dropTarget=0;points=[[0,0.5],[1,0.5]];portConstraint=eastwest;top=0;left=0;right=0;bottom=0;" parent="GO1e90xstaqXlvDwQSsc-142" vertex="1">
          <mxGeometry y="210" width="240" height="30" as="geometry" />
        </mxCell>
        <mxCell id="GO1e90xstaqXlvDwQSsc-162" value="" style="shape=partialRectangle;connectable=0;fillColor=none;top=0;left=0;bottom=0;right=0;editable=1;overflow=hidden;" parent="GO1e90xstaqXlvDwQSsc-161" vertex="1">
          <mxGeometry width="30" height="30" as="geometry">
            <mxRectangle width="30" height="30" as="alternateBounds" />
          </mxGeometry>
        </mxCell>
        <mxCell id="GO1e90xstaqXlvDwQSsc-163" value="submenus : [{objectsubmenu},&#xa;{objectsubmenu}]" style="shape=partialRectangle;connectable=0;fillColor=none;top=0;left=0;bottom=0;right=0;align=left;spacingLeft=6;overflow=hidden;fontColor=#FF9933;" parent="GO1e90xstaqXlvDwQSsc-161" vertex="1">
          <mxGeometry x="30" width="210" height="30" as="geometry">
            <mxRectangle width="210" height="30" as="alternateBounds" />
          </mxGeometry>
        </mxCell>
        <mxCell id="GO1e90xstaqXlvDwQSsc-130" value="doc &gt; table :&quot;role&quot;" style="swimlane;childLayout=stackLayout;horizontal=1;startSize=30;horizontalStack=0;rounded=1;fontSize=14;fontStyle=0;strokeWidth=2;resizeParent=0;resizeLast=1;shadow=0;dashed=0;align=center;fontColor=#00FFFF;strokeColor=#00FFFF;" parent="1" vertex="1">
          <mxGeometry x="577.5" y="-50" width="165" height="100" as="geometry" />
        </mxCell>
        <mxCell id="GO1e90xstaqXlvDwQSsc-131" value="name : (string, unique)&#xa;codename: (string, unique)&#xa;menus : [idmenu ]&#xa;isactive : (bool)&#xa;" style="align=left;strokeColor=none;fillColor=none;spacingLeft=4;fontSize=12;verticalAlign=top;resizable=0;rotatable=0;part=1;" parent="GO1e90xstaqXlvDwQSsc-130" vertex="1">
          <mxGeometry y="30" width="165" height="70" as="geometry" />
        </mxCell>
        <mxCell id="GO1e90xstaqXlvDwQSsc-236" style="edgeStyle=orthogonalEdgeStyle;rounded=0;orthogonalLoop=1;jettySize=auto;html=1;exitX=1;exitY=0.75;exitDx=0;exitDy=0;entryX=1.003;entryY=0.106;entryDx=0;entryDy=0;entryPerimeter=0;" parent="1" source="GO1e90xstaqXlvDwQSsc-134" target="GO1e90xstaqXlvDwQSsc-130" edge="1">
          <mxGeometry relative="1" as="geometry">
            <mxPoint x="700" y="-40" as="targetPoint" />
            <Array as="points">
              <mxPoint x="790" y="170" />
              <mxPoint x="790" y="-39" />
            </Array>
          </mxGeometry>
        </mxCell>
        <mxCell id="GO1e90xstaqXlvDwQSsc-239" style="edgeStyle=orthogonalEdgeStyle;rounded=0;orthogonalLoop=1;jettySize=auto;html=1;exitX=0.994;exitY=0.865;exitDx=0;exitDy=0;exitPerimeter=0;entryX=0;entryY=0.038;entryDx=0;entryDy=0;entryPerimeter=0;" parent="1" source="GO1e90xstaqXlvDwQSsc-131" target="GO1e90xstaqXlvDwQSsc-142" edge="1">
          <mxGeometry relative="1" as="geometry">
            <mxPoint x="720" as="targetPoint" />
            <Array as="points">
              <mxPoint x="760" y="41" />
              <mxPoint x="760" y="23" />
              <mxPoint x="770" y="23" />
              <mxPoint x="770" y="-50" />
            </Array>
          </mxGeometry>
        </mxCell>
        <mxCell id="GO1e90xstaqXlvDwQSsc-240" style="edgeStyle=orthogonalEdgeStyle;rounded=0;orthogonalLoop=1;jettySize=auto;html=1;exitX=0;exitY=0.5;exitDx=0;exitDy=0;" parent="1" source="GO1e90xstaqXlvDwQSsc-43" target="GO1e90xstaqXlvDwQSsc-33" edge="1">
          <mxGeometry relative="1" as="geometry">
            <Array as="points">
              <mxPoint x="210" y="115" />
              <mxPoint x="210" y="235" />
            </Array>
          </mxGeometry>
        </mxCell>
        <mxCell id="GO1e90xstaqXlvDwQSsc-241" value="doc &gt; submenu" style="swimlane;childLayout=stackLayout;horizontal=1;startSize=30;horizontalStack=0;rounded=1;fontSize=14;fontStyle=0;strokeWidth=2;resizeParent=0;resizeLast=1;shadow=0;dashed=0;align=center;fontColor=#FF9933;strokeColor=#FF8000;" parent="1" vertex="1">
          <mxGeometry x="1120" y="-60" width="170" height="120" as="geometry" />
        </mxCell>
        <mxCell id="GO1e90xstaqXlvDwQSsc-242" value="name : (string, unique)&#xa;codename : (string, unique)&#xa;icon : (string)&#xa;url : (string)&#xa;desc : (string)" style="align=left;strokeColor=none;fillColor=none;spacingLeft=4;fontSize=12;verticalAlign=top;resizable=0;rotatable=0;part=1;" parent="GO1e90xstaqXlvDwQSsc-241" vertex="1">
          <mxGeometry y="30" width="170" height="90" as="geometry" />
        </mxCell>
        <mxCell id="GO1e90xstaqXlvDwQSsc-265" style="edgeStyle=orthogonalEdgeStyle;rounded=0;orthogonalLoop=1;jettySize=auto;html=1;exitX=1;exitY=0.5;exitDx=0;exitDy=0;entryX=0;entryY=0.167;entryDx=0;entryDy=0;entryPerimeter=0;" parent="1" source="GO1e90xstaqXlvDwQSsc-161" target="GO1e90xstaqXlvDwQSsc-241" edge="1">
          <mxGeometry relative="1" as="geometry">
            <mxPoint x="1050" y="80" as="targetPoint" />
          </mxGeometry>
        </mxCell>
        <mxCell id="GO1e90xstaqXlvDwQSsc-294" style="edgeStyle=orthogonalEdgeStyle;rounded=0;orthogonalLoop=1;jettySize=auto;html=1;exitX=1;exitY=0.5;exitDx=0;exitDy=0;entryX=0.002;entryY=0.189;entryDx=0;entryDy=0;entryPerimeter=0;" parent="1" source="GO1e90xstaqXlvDwQSsc-43" target="GO1e90xstaqXlvDwQSsc-133" edge="1">
          <mxGeometry relative="1" as="geometry">
            <mxPoint x="490.0666666666666" y="-34" as="targetPoint" />
            <Array as="points">
              <mxPoint x="500" y="115" />
              <mxPoint x="500" y="103" />
              <mxPoint x="510" y="103" />
            </Array>
          </mxGeometry>
        </mxCell>
        <mxCell id="GO1e90xstaqXlvDwQSsc-295" value="doc &gt; table :&quot;warehouse&quot;" style="swimlane;childLayout=stackLayout;horizontal=1;startSize=30;horizontalStack=0;rounded=1;fontSize=14;fontStyle=0;strokeWidth=2;resizeParent=0;resizeLast=1;shadow=0;dashed=0;align=center;fontColor=#FF33FF;strokeColor=#FF33FF;" parent="1" vertex="1">
          <mxGeometry x="550" y="230" width="220" height="170" as="geometry" />
        </mxCell>
        <mxCell id="GO1e90xstaqXlvDwQSsc-296" value="name : (string, unique)&#xa;codename : (string, unique)&#xa;minstock : (float32)&#xa;maxstock : (float32)&#xa;urllayout : (string)&#xa;details : [&quot;{{_idcolumn}}&quot;,&#xa;&quot;{{_idcolumn}}&quot;]&#xa;desc : (string)&#xa;isactive : (bool)" style="align=left;strokeColor=none;fillColor=none;spacingLeft=4;fontSize=12;verticalAlign=top;resizable=0;rotatable=0;part=1;" parent="GO1e90xstaqXlvDwQSsc-295" vertex="1">
          <mxGeometry y="30" width="220" height="140" as="geometry" />
        </mxCell>
        <mxCell id="GO1e90xstaqXlvDwQSsc-325" style="edgeStyle=orthogonalEdgeStyle;rounded=0;orthogonalLoop=1;jettySize=auto;html=1;exitX=1;exitY=0.5;exitDx=0;exitDy=0;" parent="1" source="GO1e90xstaqXlvDwQSsc-46" edge="1">
          <mxGeometry relative="1" as="geometry">
            <mxPoint x="549" y="240" as="targetPoint" />
            <Array as="points">
              <mxPoint x="530" y="145" />
              <mxPoint x="530" y="240" />
              <mxPoint x="549" y="240" />
            </Array>
          </mxGeometry>
        </mxCell>
        <mxCell id="GO1e90xstaqXlvDwQSsc-330" value="" style="edgeStyle=orthogonalEdgeStyle;rounded=0;orthogonalLoop=1;jettySize=auto;html=1;entryX=-0.012;entryY=0.132;entryDx=0;entryDy=0;entryPerimeter=0;" parent="1" source="GO1e90xstaqXlvDwQSsc-326" target="GO1e90xstaqXlvDwQSsc-328" edge="1">
          <mxGeometry relative="1" as="geometry">
            <Array as="points">
              <mxPoint x="800" y="500" />
              <mxPoint x="800" y="450" />
            </Array>
          </mxGeometry>
        </mxCell>
        <mxCell id="GO1e90xstaqXlvDwQSsc-326" value="doc &gt; table :&quot;column&quot;" style="swimlane;childLayout=stackLayout;horizontal=1;startSize=30;horizontalStack=0;rounded=1;fontSize=14;fontStyle=0;strokeWidth=2;resizeParent=0;resizeLast=1;shadow=0;dashed=0;align=center;fontColor=#CCCC00;strokeColor=#CCCC00;" parent="1" vertex="1">
          <mxGeometry x="535" y="440" width="250" height="100" as="geometry" />
        </mxCell>
        <mxCell id="GO1e90xstaqXlvDwQSsc-327" value="name : (string, unique)&#xa;codename : (string, unique)&#xa;rows : [&quot;{{_idrow}}&quot;,&quot;{{_idrow}}&quot;]&#xa;isactive : (bool)" style="align=left;strokeColor=none;fillColor=none;spacingLeft=4;fontSize=12;verticalAlign=top;resizable=0;rotatable=0;part=1;fontColor=#000000;" parent="GO1e90xstaqXlvDwQSsc-326" vertex="1">
          <mxGeometry y="30" width="250" height="70" as="geometry" />
        </mxCell>
        <mxCell id="GO1e90xstaqXlvDwQSsc-328" value="doc &gt; table :&quot;row&quot;" style="swimlane;childLayout=stackLayout;horizontal=1;startSize=30;horizontalStack=0;rounded=1;fontSize=14;fontStyle=0;strokeWidth=2;resizeParent=0;resizeLast=1;shadow=0;dashed=0;align=center;fontColor=#00FF00;strokeColor=#33FF33;" parent="1" vertex="1">
          <mxGeometry x="825" y="430" width="250" height="150" as="geometry" />
        </mxCell>
        <mxCell id="GO1e90xstaqXlvDwQSsc-329" value="name : (string, unique)&#xa;codename : (string, unique)&#xa;alt : (string)&#xa;label : (string)&#xa;coords : (string)&#xa;href : (string)&#xa;shape : (string)&#xa;isactive : (bool)" style="align=left;strokeColor=none;fillColor=none;spacingLeft=4;fontSize=12;verticalAlign=top;resizable=0;rotatable=0;part=1;" parent="GO1e90xstaqXlvDwQSsc-328" vertex="1">
          <mxGeometry y="30" width="250" height="120" as="geometry" />
        </mxCell>
        <mxCell id="GO1e90xstaqXlvDwQSsc-335" value="" style="edgeStyle=orthogonalEdgeStyle;rounded=0;orthogonalLoop=1;jettySize=auto;html=1;" parent="1" source="GO1e90xstaqXlvDwQSsc-49" edge="1">
          <mxGeometry relative="1" as="geometry">
            <mxPoint x="535" y="450" as="targetPoint" />
            <Array as="points">
              <mxPoint x="520" y="175" />
              <mxPoint x="520" y="450" />
              <mxPoint x="535" y="450" />
            </Array>
          </mxGeometry>
        </mxCell>
        <mxCell id="GO1e90xstaqXlvDwQSsc-336" value="doc &gt; table :&quot;product&quot;" style="swimlane;childLayout=stackLayout;horizontal=1;startSize=30;horizontalStack=0;rounded=1;fontSize=14;fontStyle=0;strokeWidth=2;resizeParent=0;resizeLast=1;shadow=0;dashed=0;align=center;fontColor=#67AB9F;strokeColor=#67AB9F;" parent="1" vertex="1">
          <mxGeometry x="535" y="570" width="250" height="140" as="geometry" />
        </mxCell>
        <mxCell id="GO1e90xstaqXlvDwQSsc-337" value="name : (string, unique)&#xa;codename : (string, unique)&#xa;sku : (string)&#xa;type : (string) - &quot;supply / output&quot;&#xa;imagesurl : [&quot;&quot;]&#xa;category : &quot;{{_idcategory}}&quot;&#xa;isactive : (bool)" style="align=left;strokeColor=none;fillColor=none;spacingLeft=4;fontSize=12;verticalAlign=top;resizable=0;rotatable=0;part=1;fontColor=#000000;" parent="GO1e90xstaqXlvDwQSsc-336" vertex="1">
          <mxGeometry y="30" width="250" height="110" as="geometry" />
        </mxCell>
        <mxCell id="GO1e90xstaqXlvDwQSsc-338" value="" style="edgeStyle=orthogonalEdgeStyle;rounded=0;orthogonalLoop=1;jettySize=auto;html=1;fontColor=#67AB9F;" parent="1" source="GO1e90xstaqXlvDwQSsc-55" target="GO1e90xstaqXlvDwQSsc-336" edge="1">
          <mxGeometry relative="1" as="geometry">
            <mxPoint x="490" y="590" as="targetPoint" />
            <Array as="points">
              <mxPoint x="510" y="235" />
              <mxPoint x="510" y="590" />
            </Array>
          </mxGeometry>
        </mxCell>
        <mxCell id="GO1e90xstaqXlvDwQSsc-361" value="" style="edgeStyle=orthogonalEdgeStyle;rounded=0;orthogonalLoop=1;jettySize=auto;html=1;fontColor=#67AB9F;entryX=0;entryY=0;entryDx=0;entryDy=0;" parent="1" source="GO1e90xstaqXlvDwQSsc-52" target="GO1e90xstaqXlvDwQSsc-328" edge="1">
          <mxGeometry relative="1" as="geometry">
            <mxPoint x="810" y="240" as="targetPoint" />
          </mxGeometry>
        </mxCell>
        <mxCell id="GO1e90xstaqXlvDwQSsc-362" value="doc &gt; table :&quot;moves&quot;" style="swimlane;childLayout=stackLayout;horizontal=1;startSize=30;horizontalStack=0;rounded=1;fontSize=14;fontStyle=0;strokeWidth=2;resizeParent=0;resizeLast=1;shadow=0;dashed=0;align=center;fontColor=#990099;strokeColor=#990099;" parent="1" vertex="1">
          <mxGeometry x="535" y="730" width="250" height="130" as="geometry" />
        </mxCell>
        <mxCell id="GO1e90xstaqXlvDwQSsc-363" value="idproduct : (string)&#xa;datetime : (string)&#xa;fromrack : (string)&#xa;torack : (string)&#xa;moveby : (string)&#xa;approveby : (string)" style="align=left;strokeColor=none;fillColor=none;spacingLeft=4;fontSize=12;verticalAlign=top;resizable=0;rotatable=0;part=1;fontColor=#000000;" parent="GO1e90xstaqXlvDwQSsc-362" vertex="1">
          <mxGeometry y="30" width="250" height="100" as="geometry" />
        </mxCell>
        <mxCell id="GO1e90xstaqXlvDwQSsc-364" value="" style="edgeStyle=orthogonalEdgeStyle;rounded=0;orthogonalLoop=1;jettySize=auto;html=1;fontColor=#990099;entryX=-0.012;entryY=0.147;entryDx=0;entryDy=0;entryPerimeter=0;" parent="1" source="GO1e90xstaqXlvDwQSsc-92" target="GO1e90xstaqXlvDwQSsc-362" edge="1">
          <mxGeometry relative="1" as="geometry">
            <mxPoint x="480" y="750" as="targetPoint" />
            <Array as="points">
              <mxPoint x="500" y="265" />
              <mxPoint x="500" y="749" />
            </Array>
          </mxGeometry>
        </mxCell>
        <mxCell id="huxQKb0KZZLIL76tW-9W-1" value="doc &gt; table :&quot;po&quot;" style="swimlane;childLayout=stackLayout;horizontal=1;startSize=30;horizontalStack=0;rounded=1;fontSize=14;fontStyle=0;strokeWidth=2;resizeParent=0;resizeLast=1;shadow=0;dashed=0;align=center;fontColor=#990099;strokeColor=#990099;" parent="1" vertex="1">
          <mxGeometry x="535" y="1200" width="250" height="120" as="geometry" />
        </mxCell>
        <mxCell id="huxQKb0KZZLIL76tW-9W-2" value="nopo : (string)&#xa;datepo: (string)&#xa;supplier : {docsupplier}&#xa;comments : (string)&#xa;details : [{docdetailpo}]&#xa;&#xa;&#xa;" style="align=left;strokeColor=none;fillColor=none;spacingLeft=4;fontSize=12;verticalAlign=top;resizable=0;rotatable=0;part=1;fontColor=#000000;" parent="huxQKb0KZZLIL76tW-9W-1" vertex="1">
          <mxGeometry y="30" width="250" height="90" as="geometry" />
        </mxCell>
        <mxCell id="huxQKb0KZZLIL76tW-9W-3" value="" style="edgeStyle=orthogonalEdgeStyle;rounded=0;orthogonalLoop=1;jettySize=auto;html=1;entryX=-0.003;entryY=0.095;entryDx=0;entryDy=0;entryPerimeter=0;" parent="1" source="GO1e90xstaqXlvDwQSsc-98" target="huxQKb0KZZLIL76tW-9W-8" edge="1">
          <mxGeometry relative="1" as="geometry">
            <mxPoint x="510" y="930" as="targetPoint" />
            <Array as="points">
              <mxPoint x="490" y="295" />
              <mxPoint x="490" y="918" />
            </Array>
          </mxGeometry>
        </mxCell>
        <mxCell id="huxQKb0KZZLIL76tW-9W-24" value="" style="edgeStyle=orthogonalEdgeStyle;rounded=0;orthogonalLoop=1;jettySize=auto;html=1;fontColor=#3B83FF;" parent="1" source="huxQKb0KZZLIL76tW-9W-8" target="huxQKb0KZZLIL76tW-9W-22" edge="1">
          <mxGeometry relative="1" as="geometry" />
        </mxCell>
        <mxCell id="huxQKb0KZZLIL76tW-9W-8" value="doc &gt; table :&quot;invoice&quot;" style="swimlane;childLayout=stackLayout;horizontal=1;startSize=30;horizontalStack=0;rounded=1;fontSize=14;fontStyle=0;strokeWidth=2;resizeParent=0;resizeLast=1;shadow=0;dashed=0;align=center;fontColor=#3B83FF;strokeColor=#3B83FF;" parent="1" vertex="1">
          <mxGeometry x="535" y="900" width="250" height="250" as="geometry" />
        </mxCell>
        <mxCell id="huxQKb0KZZLIL76tW-9W-9" value="noinvoice: (string)&#xa;billto : (string)&#xa;shipto : (string)&#xa;invoicedate : (string)&#xa;nopo : (string)&#xa;duedate : (string)&#xa;loadby : [{{_iduser}}]&#xa;checkby : {{_iduser}}&#xa;approveby : {{_iduser}}&#xa;details: [{docdetailinvoice}]&#xa;tax : (float32)&#xa;shipping : (float32)&#xa;other : (float32)&#xa;total : (float32)&#xa;" style="align=left;strokeColor=none;fillColor=none;spacingLeft=4;fontSize=12;verticalAlign=top;resizable=0;rotatable=0;part=1;fontColor=#000000;" parent="huxQKb0KZZLIL76tW-9W-8" vertex="1">
          <mxGeometry y="30" width="250" height="220" as="geometry" />
        </mxCell>
        <mxCell id="huxQKb0KZZLIL76tW-9W-22" value="doc &gt; table :&quot;detailinvoice&quot;" style="swimlane;childLayout=stackLayout;horizontal=1;startSize=30;horizontalStack=0;rounded=1;fontSize=14;fontStyle=0;strokeWidth=2;resizeParent=0;resizeLast=1;shadow=0;dashed=0;align=center;fontColor=#3B83FF;strokeColor=#3B83FF;" parent="1" vertex="1">
          <mxGeometry x="865" y="900" width="250" height="190" as="geometry" />
        </mxCell>
        <mxCell id="huxQKb0KZZLIL76tW-9W-23" value="idproduct : (string)&#xa;qty : (int32)&#xa;unitprice : (float32)&#xa;nopo : (string)&#xa;duedate : (string)&#xa;loadby : [{{_iduser}}]&#xa;checkby : {{_iduser}}&#xa;approveby : {{_iduser}}&#xa;details: [{objectdetailinvoice}]&#xa;" style="align=left;strokeColor=none;fillColor=none;spacingLeft=4;fontSize=12;verticalAlign=top;resizable=0;rotatable=0;part=1;fontColor=#000000;" parent="huxQKb0KZZLIL76tW-9W-22" vertex="1">
          <mxGeometry y="30" width="250" height="160" as="geometry" />
        </mxCell>
        <mxCell id="mjd-pcGEAaj1Xn-aj_Og-1" value="doc &gt; table :&quot;thirdparty&quot;" style="swimlane;childLayout=stackLayout;horizontal=1;startSize=30;horizontalStack=0;rounded=1;fontSize=14;fontStyle=0;strokeWidth=2;resizeParent=0;resizeLast=1;shadow=0;dashed=0;align=center;fontColor=#CCCC00;strokeColor=#CCCC00;" vertex="1" parent="1">
          <mxGeometry x="210" y="480" width="250" height="140" as="geometry" />
        </mxCell>
        <mxCell id="mjd-pcGEAaj1Xn-aj_Og-2" value="name : (string)&#xa;category : (string)&#xa;phone : (string)&#xa;bankacc : (string)&#xa;address : (string)&#xa;shipaddress : (string)&#xa;isactive : (bool)" style="align=left;strokeColor=none;fillColor=none;spacingLeft=4;fontSize=12;verticalAlign=top;resizable=0;rotatable=0;part=1;fontColor=#000000;" vertex="1" parent="mjd-pcGEAaj1Xn-aj_Og-1">
          <mxGeometry y="30" width="250" height="110" as="geometry" />
        </mxCell>
      </root>
    </mxGraphModel>
  </diagram>
</mxfile>
